<svg width="120" height="39" viewBox="0 0 120 39" fill="none" xmlns="http://www.w3.org/2000/svg">
<path d="M45.5625 0.6851L29.8519 38.1688H19.6019L11.8706 8.2551C11.4013 6.4126 10.9931 5.7375 9.56563 4.9613C7.235 3.6969 3.38625 2.5107 0 1.7744L0.23 0.6851H16.7294C18.8325 0.6851 20.7231 2.085 21.2006 4.5069L25.2838 26.1969L35.375 0.6844L45.5625 0.6851ZM85.7238 25.9307C85.765 16.0376 72.0438 15.4925 72.1381 11.0732C72.1675 9.7282 73.4481 8.2982 76.2513 7.9332C77.6406 7.7513 81.4688 7.6126 85.8106 9.6107L87.5138 1.6619C85.1806 0.815 82.1788 0 78.4438 0C68.8594 0 62.1144 5.095 62.0575 12.3907C61.9956 17.7869 66.8719 20.7982 70.5456 22.5913C74.325 24.4275 75.5931 25.6076 75.5788 27.2501C75.5519 29.7644 72.5644 30.8744 69.7725 30.9182C64.8988 30.9932 62.0706 29.5994 59.8163 28.5513L58.0588 36.7632C60.3244 37.8026 64.5063 38.7094 68.8419 38.7551C79.0288 38.7551 85.6925 33.7232 85.7238 25.9307ZM111.033 38.1688H120.001L112.173 0.6851H103.895C102.034 0.6851 100.464 1.7688 99.7688 3.4351L85.2181 38.1688H95.4L97.4213 32.5701H109.862L111.033 38.1688ZM100.213 24.8875L105.317 10.8138L108.254 24.8875H100.213ZM59.4169 0.6851L51.3988 38.1688H41.7025L49.7238 0.6851H59.4169Z" fill="white"/>
</svg>
